<svg width="12" height="14" viewBox="0 0 12 14" fill="none" xmlns="http://www.w3.org/2000/svg">
<path d="M11.1099 10.2073C10.9186 10.65 10.6919 11.0573 10.4293 11.432C10.0713 11.9433 9.77726 12.2966 9.55193 12.4933C9.20193 12.8146 8.82593 12.98 8.42393 12.9893C8.13593 12.9893 7.78793 12.9073 7.3826 12.7406C6.97593 12.5746 6.6026 12.4933 6.2606 12.4933C5.9026 12.4933 5.5186 12.5746 5.10726 12.7406C4.6966 12.9073 4.3646 12.9946 4.1106 13.0026C3.72593 13.0193 3.34126 12.85 2.95793 12.4933C2.71326 12.28 2.40726 11.9133 2.03993 11.3946C1.6466 10.842 1.32326 10.1986 1.06993 9.46731C0.798598 8.67598 0.662598 7.91064 0.662598 7.16931C0.662598 6.32064 0.845931 5.58798 1.21326 4.97464C1.5026 4.48131 1.8866 4.09264 2.3666 3.80731C2.84726 3.52131 3.36726 3.37531 3.9266 3.36597C4.23326 3.36597 4.63526 3.46064 5.13326 3.64731C5.63126 3.83398 5.95126 3.92864 6.0906 3.92864C6.19593 3.92864 6.54993 3.81731 7.1526 3.59664C7.72126 3.39197 8.20126 3.30731 8.5946 3.34064C9.66127 3.42664 10.4619 3.84664 10.9946 4.60398C10.0413 5.18197 9.56993 5.99064 9.57926 7.02864C9.58727 7.83731 9.88127 8.50998 10.4573 9.04398C10.7186 9.29198 11.0099 9.48331 11.3339 9.61931C11.2633 9.82398 11.1886 10.0193 11.1099 10.2073ZM8.66526 0.586642C8.66526 1.21998 8.43326 1.81198 7.9726 2.35931C7.41526 3.00997 6.74193 3.38664 6.01193 3.32731C6.0026 3.25131 5.99793 3.17131 5.99793 3.08731C5.99793 2.47864 6.26193 1.82798 6.73326 1.29531C6.96793 1.02598 7.2666 0.801308 7.6286 0.622642C7.98993 0.446642 8.33126 0.349308 8.6526 0.332642C8.66126 0.417975 8.66526 0.502642 8.66526 0.586642Z" fill="#CCCCCC"/>
</svg>
