<svg xmlns="http://www.w3.org/2000/svg" width="21" height="20" fill="none" viewBox="0 0 21 20"><path fill="#F5F5F4" d="M5.99305 10C5.99305 12.761 8.23905 15.007 11 15.007C13.761 15.007 16.007 12.761 16.007 10C16.007 7.239 13.761 4.993 11 4.993C8.23905 4.993 5.99305 7.239 5.99305 10ZM11 6.993C12.658 6.993 14.007 8.342 14.007 10C14.007 11.658 12.658 13.007 11 13.007C9.34205 13.007 7.99305 11.658 7.99305 10C7.99305 8.342 9.34205 6.993 11 6.993ZM9.99805 17.5C9.99805 17.2239 10.2219 17 10.498 17H11.498C11.7742 17 11.998 17.2239 11.998 17.5V19.5C11.998 19.7761 11.7742 20 11.498 20H10.498C10.2219 20 9.99805 19.7761 9.99805 19.5V17.5ZM9.99805 0.5C9.99805 0.223858 10.2219 0 10.498 0H11.498C11.7742 0 11.998 0.223858 11.998 0.5V2.5C11.998 2.77614 11.7742 3 11.498 3H10.498C10.2219 3 9.99805 2.77614 9.99805 2.5V0.5ZM0.998047 9.5C0.998047 9.22386 1.2219 9 1.49805 9H3.49805C3.77419 9 3.99805 9.22386 3.99805 9.5V10.5C3.99805 10.7761 3.77419 11 3.49805 11H1.49805C1.2219 11 0.998047 10.7761 0.998047 10.5V9.5ZM17.998 9.5C17.998 9.22386 18.2219 9 18.498 9H20.498C20.7742 9 20.998 9.22386 20.998 9.5V10.5C20.998 10.7761 20.7742 11 20.498 11H18.498C18.2219 11 17.998 10.7761 17.998 10.5V9.5Z"/><path fill="#F5F5F4" d="M3.57275 16.7168C3.37743 16.5216 3.37734 16.205 3.57254 16.0097L4.98633 14.5951C5.18154 14.3998 5.49812 14.3997 5.69344 14.5949L6.40076 15.3018C6.59608 15.497 6.59617 15.8136 6.40097 16.0089L4.98717 17.4235C4.79197 17.6188 4.47539 17.6189 4.28007 17.4237L3.57275 16.7168Z"/><path fill="#F5F5F4" d="M15.5938 4.69713C15.3986 4.50187 15.3986 4.18529 15.5938 3.99003L17.0087 2.57508C17.204 2.37981 17.5206 2.37981 17.7158 2.57507L18.423 3.28216C18.6182 3.47742 18.6182 3.794 18.423 3.98927L17.0081 5.40421C16.8128 5.59948 16.4962 5.59948 16.301 5.40423L15.5938 4.69713Z"/><path fill="#F5F5F4" d="M5.69544 5.40513C5.50012 5.60034 5.18354 5.60024 4.98833 5.40492L3.57454 3.99029C3.37934 3.79497 3.37943 3.47839 3.57475 3.28318L4.28207 2.57628C4.47739 2.38108 4.79397 2.38117 4.98917 2.57649L6.40297 3.99113C6.59817 4.18645 6.59808 4.50303 6.40276 4.69823L5.69544 5.40513Z"/><path fill="#F5F5F4" d="M18.4223 16.01C18.6175 16.2052 18.6175 16.5218 18.4223 16.7171L17.7152 17.4242C17.5199 17.6195 17.2033 17.6195 17.0081 17.4242L15.5931 16.0093C15.3979 15.8141 15.3979 15.4975 15.5931 15.3022L16.3002 14.5951C16.4955 14.3998 16.8121 14.3998 17.0073 14.5951L18.4223 16.01Z"/></svg>