<svg width="12" height="12" viewBox="0 0 12 12" fill="none" xmlns="http://www.w3.org/2000/svg">
<path d="M6.63608 5.74397L8.60741 3.77263L2.24008 0.193967C1.81808 -0.0340328 1.42275 -0.0660327 1.07608 0.183301L6.63608 5.74397ZM8.94341 8.05197L10.9927 6.8993C11.3927 6.6753 11.6121 6.35797 11.6121 6.00597C11.6121 5.65463 11.3927 5.33663 10.9934 5.11263L9.13808 4.07063L7.04941 6.15863L8.94341 8.05197ZM0.733415 0.667967C0.690748 0.7993 0.666748 0.945967 0.666748 1.10663V10.91C0.666748 11.164 0.722748 11.3826 0.824081 11.5566L6.22208 6.15797L0.733415 0.667967ZM6.63608 6.5713L1.26808 11.94C1.37075 11.9793 1.48141 12 1.59808 12C1.80608 12 2.02275 11.9386 2.24341 11.816L8.41341 8.3513L6.63608 6.5713Z" fill="#CCCCCC"/>
</svg>
