<svg xmlns="http://www.w3.org/2000/svg" width="12" height="12" fill="none" viewBox="0 0 12 12"><path fill="#999" d="M6.63608 5.74403L8.60741 3.77269L2.24008 0.194028C1.81808 -0.0339718 1.42275 -0.0659716 1.07608 0.183362L6.63608 5.74403ZM8.94341 8.05203L10.9927 6.89936C11.3927 6.67536 11.6121 6.35803 11.6121 6.00603C11.6121 5.65469 11.3927 5.33669 10.9934 5.11269L9.13808 4.07069L7.04941 6.15869L8.94341 8.05203ZM0.733415 0.668028C0.690748 0.799361 0.666748 0.946028 0.666748 1.10669V10.91C0.666748 11.164 0.722748 11.3827 0.824081 11.5567L6.22208 6.15803L0.733415 0.668028ZM6.63608 6.57136L1.26808 11.94C1.37075 11.9794 1.48141 12 1.59808 12C1.80608 12 2.02275 11.9387 2.24341 11.816L8.41341 8.35136L6.63608 6.57136Z"/></svg>