<svg width="20" height="20" viewBox="0 0 20 20" fill="none" xmlns="http://www.w3.org/2000/svg">
<path d="M9.97101 20C9.67014 20 9.36928 20 9.06841 20C3.55246 19.4975 -0.459131 14.5729 0.0423182 9.04523C0.443478 4.22111 4.25449 0.40201 9.06841 0C9.46956 0 9.87072 0.201005 10.0713 0.502513C10.2719 0.80402 10.2719 1.30653 9.97101 1.60804C8.96812 2.91457 8.66725 4.52261 8.86783 6.13065C9.06841 7.73869 9.97101 9.14573 11.2748 10.0503C13.3809 11.6583 16.2893 11.6583 18.3954 10.0503C18.6962 9.84925 19.0974 9.74874 19.4986 9.94975C19.7994 10.1508 20 10.5528 20 10.9548C19.7994 13.6683 18.4957 16.0804 16.3896 17.7889C14.4841 19.196 12.2777 20 9.97101 20ZM6.90823 3.26192C6.99885 2.86302 6.62196 2.5095 6.25541 2.69108C3.84213 3.88656 2.21628 6.2761 1.94783 9.14573C1.54667 13.5678 4.75594 17.4874 9.1687 17.8894C11.2748 18.0905 13.3809 17.4874 14.9855 16.0804C15.8021 15.4109 16.4538 14.5762 16.9407 13.6578C17.1412 13.2795 16.7609 12.8739 16.3421 12.9629C14.1234 13.4343 11.7733 12.9444 9.87072 11.5578C8.1658 10.2513 7.06261 8.44221 6.66145 6.33166C6.58544 5.26527 6.68225 4.2566 6.90823 3.26192Z" fill="#1D1D1D"/>
</svg>
