<svg width="216" height="40" viewBox="0 0 216 40" fill="none" xmlns="http://www.w3.org/2000/svg">
<path d="M67.5292 9.30005V13.392H61.6702V31H57.3922V13.392H51.5642V9.30005H67.5292Z" fill="#F5F5F4"/>
<path d="M68.745 24.8931C69.2823 26.8357 70.7393 27.807 73.116 27.807C74.6453 27.807 75.8027 27.2904 76.588 26.257L79.812 28.1171C78.2827 30.3284 76.03 31.4341 73.054 31.4341C70.4913 31.4341 68.435 30.659 66.885 29.1091C65.335 27.5591 64.56 25.6061 64.56 23.2501C64.56 20.9147 65.3247 18.972 66.854 17.422C68.3833 15.8514 70.3467 15.0661 72.744 15.0661C75.0173 15.0661 76.8877 15.8514 78.355 17.422C79.843 18.9927 80.587 20.9354 80.587 23.2501C80.587 23.7667 80.5353 24.3144 80.432 24.8931H68.745ZM68.683 21.793H76.588C76.3607 20.739 75.8853 19.9537 75.162 19.437C74.4593 18.9204 73.6533 18.662 72.744 18.662C71.6693 18.662 70.7807 18.941 70.078 19.499C69.3753 20.0364 68.9103 20.801 68.683 21.793Z" fill="#F5F5F4"/>
<path d="M84.9122 19.9021C84.9122 20.3154 85.1809 20.6564 85.7182 20.925C86.2762 21.173 86.9479 21.4004 87.7332 21.6071C88.5186 21.7931 89.3039 22.0411 90.0892 22.3511C90.8745 22.6404 91.5359 23.1364 92.0732 23.8391C92.6312 24.5417 92.9102 25.42 92.9102 26.474C92.9102 28.0654 92.3109 29.2951 91.1122 30.1631C89.9342 31.0104 88.4566 31.4341 86.6792 31.4341C83.4966 31.4341 81.3265 30.2044 80.1692 27.745L83.6412 25.792C84.0959 27.1354 85.1086 27.807 86.6792 27.807C88.1052 27.807 88.8182 27.3627 88.8182 26.474C88.8182 26.0607 88.5392 25.7301 87.9812 25.4821C87.4439 25.2134 86.7825 24.9757 85.9972 24.769C85.2119 24.5624 84.4265 24.3041 83.6412 23.9941C82.8559 23.684 82.1842 23.1984 81.6262 22.5371C81.0889 21.8551 80.8202 21.0077 80.8202 19.995C80.8202 18.4657 81.3782 17.2671 82.4942 16.3991C83.6309 15.5104 85.0362 15.0661 86.7102 15.0661C87.9709 15.0661 89.1179 15.3554 90.1512 15.934C91.1846 16.492 92.0009 17.298 92.6002 18.352L89.1902 20.2121C88.6942 19.1581 87.8675 18.631 86.7102 18.631C86.1936 18.631 85.7596 18.7447 85.4082 18.9721C85.0776 19.1994 84.9122 19.5094 84.9122 19.9021Z" fill="#F5F5F4"/>
<path d="M102.344 19.3441H98.8409V25.792C98.8409 26.3294 98.9752 26.7221 99.2439 26.9701C99.5126 27.2181 99.9052 27.3627 100.422 27.404C100.939 27.4247 101.579 27.4144 102.344 27.3731V31C99.5952 31.31 97.6526 31.0517 96.5159 30.2251C95.3999 29.3984 94.8419 27.9207 94.8419 25.792V19.3441H92.1449V15.5001H94.8419V12.3691L98.8409 11.16V15.5001H102.344V19.3441Z" fill="#F5F5F4"/>
<path d="M118.395 9.30005V13.392H112.536V31H108.258V13.392H102.43V9.30005H118.395Z" fill="#F5F5F4"/>
<path d="M128.011 15.5001H132.01V31H128.011V29.1711C126.813 30.6797 125.128 31.4341 122.958 31.4341C120.892 31.4341 119.114 30.6487 117.626 29.078C116.159 27.4867 115.425 25.5441 115.425 23.2501C115.425 20.956 116.159 19.0237 117.626 17.453C119.114 15.8617 120.892 15.0661 122.958 15.0661C125.128 15.0661 126.813 15.8204 128.011 17.3291V15.5001ZM120.633 26.4121C121.439 27.2181 122.462 27.6211 123.702 27.6211C124.942 27.6211 125.965 27.2181 126.771 26.4121C127.598 25.5854 128.011 24.5314 128.011 23.2501C128.011 21.9687 127.598 20.925 126.771 20.1191C125.965 19.2924 124.942 18.8791 123.702 18.8791C122.462 18.8791 121.439 19.2924 120.633 20.1191C119.827 20.925 119.424 21.9687 119.424 23.2501C119.424 24.5314 119.827 25.5854 120.633 26.4121Z" fill="#F5F5F4"/>
<path d="M137.655 19.9021C137.655 20.3154 137.923 20.6564 138.461 20.925C139.019 21.173 139.69 21.4004 140.476 21.6071C141.261 21.7931 142.046 22.0411 142.832 22.3511C143.617 22.6404 144.278 23.1364 144.816 23.8391C145.374 24.5417 145.653 25.42 145.653 26.474C145.653 28.0654 145.053 29.2951 143.855 30.1631C142.677 31.0104 141.199 31.4341 139.422 31.4341C136.239 31.4341 134.069 30.2044 132.912 27.745L136.384 25.792C136.838 27.1354 137.851 27.807 139.422 27.807C140.848 27.807 141.561 27.3627 141.561 26.474C141.561 26.0607 141.282 25.7301 140.724 25.4821C140.186 25.2134 139.525 24.9757 138.74 24.769C137.954 24.5624 137.169 24.3041 136.384 23.9941C135.598 23.684 134.927 23.1984 134.369 22.5371C133.831 21.8551 133.563 21.0077 133.563 19.995C133.563 18.4657 134.121 17.2671 135.237 16.3991C136.373 15.5104 137.779 15.0661 139.453 15.0661C140.713 15.0661 141.86 15.3554 142.894 15.934C143.927 16.492 144.743 17.298 145.343 18.352L141.933 20.2121C141.437 19.1581 140.61 18.631 139.453 18.631C138.936 18.631 138.502 18.7447 138.151 18.9721C137.82 19.1994 137.655 19.5094 137.655 19.9021Z" fill="#F5F5F4"/>
<path d="M160.965 31H156.315L150.673 23.963V31H146.674V9.30005H150.673V22.3201L156.005 15.5001H160.779L154.548 23.1571L160.965 31Z" fill="#F5F5F4"/>
<path d="M175.548 31L174.245 27.0941H165.596L164.294 31H159.675L167.271 9.30005H172.571L180.197 31H175.548ZM166.96 23.095H172.912L169.937 14.2291L166.96 23.095Z" fill="#F5F5F4"/>
<path d="M189.59 15.0661C191.677 15.0661 193.454 15.8617 194.922 17.453C196.41 19.0237 197.154 20.956 197.154 23.2501C197.154 25.5441 196.41 27.4867 194.922 29.078C193.454 30.6487 191.677 31.4341 189.59 31.4341C187.42 31.4341 185.746 30.6797 184.568 29.1711V37.2001H180.569V15.5001H184.568V17.3291C185.746 15.8204 187.42 15.0661 189.59 15.0661ZM185.777 26.4121C186.583 27.2181 187.606 27.6211 188.846 27.6211C190.086 27.6211 191.109 27.2181 191.915 26.4121C192.741 25.5854 193.155 24.5314 193.155 23.2501C193.155 21.9687 192.741 20.925 191.915 20.1191C191.109 19.2924 190.086 18.8791 188.846 18.8791C187.606 18.8791 186.583 19.2924 185.777 20.1191C184.971 20.925 184.568 21.9687 184.568 23.2501C184.568 24.5314 184.971 25.5854 185.777 26.4121Z" fill="#F5F5F4"/>
<path d="M207.445 15.0661C209.532 15.0661 211.309 15.8617 212.777 17.453C214.265 19.0237 215.009 20.956 215.009 23.2501C215.009 25.5441 214.265 27.4867 212.777 29.078C211.309 30.6487 209.532 31.4341 207.445 31.4341C205.275 31.4341 203.601 30.6797 202.423 29.1711V37.2001H198.424V15.5001H202.423V17.3291C203.601 15.8204 205.275 15.0661 207.445 15.0661ZM203.632 26.4121C204.438 27.2181 205.461 27.6211 206.701 27.6211C207.941 27.6211 208.964 27.2181 209.77 26.4121C210.596 25.5854 211.01 24.5314 211.01 23.2501C211.01 21.9687 210.596 20.925 209.77 20.1191C208.964 19.2924 207.941 18.8791 206.701 18.8791C205.461 18.8791 204.438 19.2924 203.632 20.1191C202.826 20.925 202.423 21.9687 202.423 23.2501C202.423 24.5314 202.826 25.5854 203.632 26.4121Z" fill="#F5F5F4"/>
<mask id="mask0" mask-type="alpha" maskUnits="userSpaceOnUse" x="0" y="0" width="40" height="40">
<path d="M19.6464 0.353553C19.8417 0.158291 20.1583 0.158291 20.3536 0.353553L39.6464 19.6464C39.8417 19.8417 39.8417 20.1583 39.6464 20.3536L20.3536 39.6464C20.1583 39.8417 19.8417 39.8417 19.6464 39.6464L0.353553 20.3536C0.158291 20.1583 0.158291 19.8417 0.353553 19.6464L19.6464 0.353553Z" fill="#C4C4C4"/>
</mask>
<g mask="url(#mask0)">
<path d="M16.6667 3.33333L20.0001 0L40.0001 20L16.6667 3.33333Z" fill="#55EF14"/>
<path d="M16.6666 3.33337L39.9999 20L13.3333 6.66671L16.6666 3.33337Z" fill="#91F466"/>
<path d="M13.3333 6.66663L10 9.99996L40 20L13.3333 6.66663Z" fill="#BAF8A0"/>
<path d="M3.33333 23.3333L0 20L20 0L3.33333 23.3333Z" fill="#F5F5F4"/>
<path d="M6.66658 26.6667L3.33325 23.3333L19.9999 0L6.66658 26.6667Z" fill="#CCCCCC"/>
<path d="M10.0001 30L6.66675 26.6667L20.0001 0L10.0001 30Z" fill="#999999"/>
<path d="M20 40L0 20L23.3333 36.6667L20 40Z" fill="#55EF14"/>
<path d="M26.6667 33.3333L23.3333 36.6667L0 20L26.6667 33.3333Z" fill="#91F466"/>
<path d="M30 30L26.6667 33.3333L0 20L30 30Z" fill="#BAF8A0"/>
<path fill-rule="evenodd" clip-rule="evenodd" d="M40 20L35.3846 18.4615L20 40L40 20Z" fill="#F5F5F4"/>
<path fill-rule="evenodd" clip-rule="evenodd" d="M35.3846 18.4615L20 40L31.4286 17.1428L35.3846 18.4615Z" fill="#CCCCCC"/>
<path fill-rule="evenodd" clip-rule="evenodd" d="M31.4286 17.1429L20 40L28 16L31.4286 17.1429Z" fill="#999999"/>
</g>
</svg>
