<svg xmlns="http://www.w3.org/2000/svg" width="12" height="14" fill="none" viewBox="0 0 12 14"><path fill="#999" d="M11.1099 10.2073C10.9186 10.65 10.6919 11.0573 10.4293 11.432C10.0713 11.9433 9.77726 12.2967 9.55193 12.4933C9.20193 12.8147 8.82593 12.98 8.42393 12.9893C8.13593 12.9893 7.78793 12.9073 7.3826 12.7407C6.97593 12.5747 6.6026 12.4933 6.2606 12.4933C5.9026 12.4933 5.5186 12.5747 5.10726 12.7407C4.6966 12.9073 4.3646 12.9947 4.1106 13.0027C3.72593 13.0193 3.34126 12.85 2.95793 12.4933C2.71326 12.28 2.40726 11.9133 2.03993 11.3947C1.6466 10.842 1.32326 10.1987 1.06993 9.46734C0.798598 8.67601 0.662598 7.91067 0.662598 7.16934C0.662598 6.32067 0.845931 5.58801 1.21326 4.97467C1.5026 4.48134 1.8866 4.09267 2.3666 3.80734C2.84726 3.52134 3.36726 3.37534 3.9266 3.36601C4.23326 3.36601 4.63526 3.46067 5.13326 3.64734C5.63126 3.83401 5.95126 3.92867 6.0906 3.92867C6.19593 3.92867 6.54993 3.81734 7.1526 3.59667C7.72126 3.39201 8.20126 3.30734 8.5946 3.34067C9.66127 3.42667 10.4619 3.84667 10.9946 4.60401C10.0413 5.18201 9.56993 5.99067 9.57926 7.02867C9.58727 7.83734 9.88127 8.51001 10.4573 9.04401C10.7186 9.29201 11.0099 9.48334 11.3339 9.61934C11.2633 9.82401 11.1886 10.0193 11.1099 10.2073ZM8.66526 0.586672C8.66526 1.22001 8.43326 1.81201 7.9726 2.35934C7.41526 3.01001 6.74193 3.38667 6.01193 3.32734C6.0026 3.25134 5.99793 3.17134 5.99793 3.08734C5.99793 2.47867 6.26193 1.82801 6.73326 1.29534C6.96793 1.02601 7.2666 0.801339 7.6286 0.622672C7.98993 0.446672 8.33126 0.349339 8.6526 0.332672C8.66126 0.418005 8.66526 0.502672 8.66526 0.586672Z"/></svg>