<svg width="216" height="40" viewBox="0 0 216 40" fill="none" xmlns="http://www.w3.org/2000/svg">
<path d="M67.5291 9.3V13.392H61.6701V31H57.3921V13.392H51.5641V9.3H67.5291Z" fill="#1D1D1D"/>
<path d="M68.7449 24.893C69.2822 26.8357 70.7392 27.807 73.1159 27.807C74.6452 27.807 75.8026 27.2903 76.5879 26.257L79.8119 28.117C78.2826 30.3283 76.0299 31.434 73.0539 31.434C70.4912 31.434 68.4349 30.659 66.8849 29.109C65.3349 27.559 64.5599 25.606 64.5599 23.25C64.5599 20.9147 65.3246 18.972 66.8539 17.422C68.3832 15.8513 70.3466 15.066 72.7439 15.066C75.0172 15.066 76.8876 15.8513 78.3549 17.422C79.8429 18.9927 80.5869 20.9353 80.5869 23.25C80.5869 23.7667 80.5352 24.3143 80.4319 24.893H68.7449ZM68.6829 21.793H76.5879C76.3606 20.739 75.8852 19.9537 75.1619 19.437C74.4592 18.9203 73.6532 18.662 72.7439 18.662C71.6692 18.662 70.7806 18.941 70.0779 19.499C69.3752 20.0363 68.9102 20.801 68.6829 21.793Z" fill="#1D1D1D"/>
<path d="M84.9121 19.902C84.9121 20.3153 85.1808 20.6563 85.7181 20.925C86.2761 21.173 86.9478 21.4003 87.7331 21.607C88.5185 21.793 89.3038 22.041 90.0891 22.351C90.8745 22.6403 91.5358 23.1363 92.0731 23.839C92.6311 24.5417 92.9101 25.42 92.9101 26.474C92.9101 28.0653 92.3108 29.295 91.1121 30.163C89.9341 31.0103 88.4565 31.434 86.6791 31.434C83.4965 31.434 81.3265 30.2043 80.1691 27.745L83.6411 25.792C84.0958 27.1353 85.1085 27.807 86.6791 27.807C88.1051 27.807 88.8181 27.3627 88.8181 26.474C88.8181 26.0607 88.5391 25.73 87.9811 25.482C87.4438 25.2133 86.7825 24.9757 85.9971 24.769C85.2118 24.5623 84.4265 24.304 83.6411 23.994C82.8558 23.684 82.1841 23.1983 81.6261 22.537C81.0888 21.855 80.8201 21.0077 80.8201 19.995C80.8201 18.4657 81.3781 17.267 82.4941 16.399C83.6308 15.5103 85.0361 15.066 86.7101 15.066C87.9708 15.066 89.1178 15.3553 90.1511 15.934C91.1845 16.492 92.0008 17.298 92.6001 18.352L89.1901 20.212C88.6941 19.158 87.8675 18.631 86.7101 18.631C86.1935 18.631 85.7595 18.7447 85.4081 18.972C85.0775 19.1993 84.9121 19.5093 84.9121 19.902Z" fill="#1D1D1D"/>
<path d="M102.344 19.344H98.8408V25.792C98.8408 26.3293 98.9752 26.722 99.2438 26.97C99.5125 27.218 99.9052 27.3627 100.422 27.404C100.938 27.4247 101.579 27.4143 102.344 27.373V31C99.5952 31.31 97.6525 31.0517 96.5158 30.225C95.3998 29.3983 94.8418 27.9207 94.8418 25.792V19.344H92.1448V15.5H94.8418V12.369L98.8408 11.16V15.5H102.344V19.344Z" fill="#1D1D1D"/>
<path d="M118.395 9.3V13.392H112.536V31H108.258V13.392H102.43V9.3H118.395Z" fill="#1D1D1D"/>
<path d="M128.011 15.5H132.01V31H128.011V29.171C126.813 30.6797 125.128 31.434 122.958 31.434C120.892 31.434 119.114 30.6487 117.626 29.078C116.159 27.4867 115.425 25.544 115.425 23.25C115.425 20.956 116.159 19.0237 117.626 17.453C119.114 15.8617 120.892 15.066 122.958 15.066C125.128 15.066 126.813 15.8203 128.011 17.329V15.5ZM120.633 26.412C121.439 27.218 122.462 27.621 123.702 27.621C124.942 27.621 125.965 27.218 126.771 26.412C127.598 25.5853 128.011 24.5313 128.011 23.25C128.011 21.9687 127.598 20.925 126.771 20.119C125.965 19.2923 124.942 18.879 123.702 18.879C122.462 18.879 121.439 19.2923 120.633 20.119C119.827 20.925 119.424 21.9687 119.424 23.25C119.424 24.5313 119.827 25.5853 120.633 26.412Z" fill="#1D1D1D"/>
<path d="M137.655 19.902C137.655 20.3153 137.923 20.6563 138.461 20.925C139.019 21.173 139.69 21.4003 140.476 21.607C141.261 21.793 142.046 22.041 142.832 22.351C143.617 22.6403 144.278 23.1363 144.816 23.839C145.374 24.5417 145.653 25.42 145.653 26.474C145.653 28.0653 145.053 29.295 143.855 30.163C142.677 31.0103 141.199 31.434 139.422 31.434C136.239 31.434 134.069 30.2043 132.912 27.745L136.384 25.792C136.838 27.1353 137.851 27.807 139.422 27.807C140.848 27.807 141.561 27.3627 141.561 26.474C141.561 26.0607 141.282 25.73 140.724 25.482C140.186 25.2133 139.525 24.9757 138.74 24.769C137.954 24.5623 137.169 24.304 136.384 23.994C135.598 23.684 134.927 23.1983 134.369 22.537C133.831 21.855 133.563 21.0077 133.563 19.995C133.563 18.4657 134.121 17.267 135.237 16.399C136.373 15.5103 137.779 15.066 139.453 15.066C140.713 15.066 141.86 15.3553 142.894 15.934C143.927 16.492 144.743 17.298 145.343 18.352L141.933 20.212C141.437 19.158 140.61 18.631 139.453 18.631C138.936 18.631 138.502 18.7447 138.151 18.972C137.82 19.1993 137.655 19.5093 137.655 19.902Z" fill="#1D1D1D"/>
<path d="M160.965 31H156.315L150.673 23.963V31H146.674V9.3H150.673V22.32L156.005 15.5H160.779L154.548 23.157L160.965 31Z" fill="#1D1D1D"/>
<path d="M175.547 31L174.245 27.094H165.596L164.294 31H159.675L167.27 9.3H172.571L180.197 31H175.547ZM166.96 23.095H172.912L169.936 14.229L166.96 23.095Z" fill="#1D1D1D"/>
<path d="M189.589 15.066C191.677 15.066 193.454 15.8617 194.921 17.453C196.409 19.0237 197.153 20.956 197.153 23.25C197.153 25.544 196.409 27.4867 194.921 29.078C193.454 30.6487 191.677 31.434 189.589 31.434C187.419 31.434 185.745 30.6797 184.567 29.171V37.2H180.568V15.5H184.567V17.329C185.745 15.8203 187.419 15.066 189.589 15.066ZM185.776 26.412C186.582 27.218 187.605 27.621 188.845 27.621C190.085 27.621 191.108 27.218 191.914 26.412C192.741 25.5853 193.154 24.5313 193.154 23.25C193.154 21.9687 192.741 20.925 191.914 20.119C191.108 19.2923 190.085 18.879 188.845 18.879C187.605 18.879 186.582 19.2923 185.776 20.119C184.97 20.925 184.567 21.9687 184.567 23.25C184.567 24.5313 184.97 25.5853 185.776 26.412Z" fill="#1D1D1D"/>
<path d="M207.445 15.066C209.532 15.066 211.309 15.8617 212.777 17.453C214.265 19.0237 215.009 20.956 215.009 23.25C215.009 25.544 214.265 27.4867 212.777 29.078C211.309 30.6487 209.532 31.434 207.445 31.434C205.275 31.434 203.601 30.6797 202.423 29.171V37.2H198.424V15.5H202.423V17.329C203.601 15.8203 205.275 15.066 207.445 15.066ZM203.632 26.412C204.438 27.218 205.461 27.621 206.701 27.621C207.941 27.621 208.964 27.218 209.77 26.412C210.596 25.5853 211.01 24.5313 211.01 23.25C211.01 21.9687 210.596 20.925 209.77 20.119C208.964 19.2923 207.941 18.879 206.701 18.879C205.461 18.879 204.438 19.2923 203.632 20.119C202.826 20.925 202.423 21.9687 202.423 23.25C202.423 24.5313 202.826 25.5853 203.632 26.412Z" fill="#1D1D1D"/>
<mask id="mask0" mask-type="alpha" maskUnits="userSpaceOnUse" x="0" y="0" width="40" height="40">
<path d="M19.6464 0.353553C19.8417 0.158291 20.1583 0.158291 20.3536 0.353553L39.6464 19.6464C39.8417 19.8417 39.8417 20.1583 39.6464 20.3536L20.3536 39.6464C20.1583 39.8417 19.8417 39.8417 19.6464 39.6464L0.353553 20.3536C0.158291 20.1583 0.158291 19.8417 0.353553 19.6464L19.6464 0.353553Z" fill="#C4C4C4"/>
</mask>
<g mask="url(#mask0)">
<path d="M16.6667 3.33333L20 0L40 20L16.6667 3.33333Z" fill="#55EF14"/>
<path d="M16.6667 3.33333L40 20L13.3333 6.66666L16.6667 3.33333Z" fill="#91F466"/>
<path d="M13.3333 6.66667L10 10L40 20L13.3333 6.66667Z" fill="#BAF8A0"/>
<path d="M3.33333 23.3333L0 20L20 0L3.33333 23.3333Z" fill="#1D1D1D"/>
<path d="M6.66667 26.6667L3.33334 23.3333L20 0L6.66667 26.6667Z" fill="#525252"/>
<path d="M10 30L6.66666 26.6667L20 0L10 30Z" fill="#707070"/>
<path d="M20 40L0 20L23.3333 36.6667L20 40Z" fill="#55EF14"/>
<path d="M26.6667 33.3333L23.3333 36.6667L0 20L26.6667 33.3333Z" fill="#91F466"/>
<path d="M30 30L26.6667 33.3333L0 20L30 30Z" fill="#BAF8A0"/>
<path fill-rule="evenodd" clip-rule="evenodd" d="M40 20L35.3846 18.4615L20 40L40 20Z" fill="#1D1D1D"/>
<path fill-rule="evenodd" clip-rule="evenodd" d="M35.3846 18.4615L20 40L31.4286 17.1429L35.3846 18.4615Z" fill="#525252"/>
<path fill-rule="evenodd" clip-rule="evenodd" d="M31.4286 17.1429L20 40L28 16L31.4286 17.1429Z" fill="#707070"/>
</g>
</svg>
